<svg width="154" height="154" viewBox="0 0 154 154" fill="none" xmlns="http://www.w3.org/2000/svg">
<path d="M16.6909 7.52202C17.2803 6.93262 17.575 6.63792 17.8346 6.39935C24.2183 0.533548 34.0306 0.533548 40.4144 6.39935C40.674 6.63792 40.9687 6.93262 41.5581 7.52202L53.7239 19.6878C60.4154 26.3793 62.3292 36.4847 58.5478 45.1597C54.7664 53.8346 56.6802 63.94 63.3718 70.6316L83.3684 90.6282C90.06 97.3198 100.165 99.2336 108.84 95.4522C117.515 91.6708 127.621 93.5846 134.312 100.276L146.478 112.442C147.067 113.031 147.362 113.326 147.601 113.586C153.466 119.969 153.466 129.782 147.601 136.165C147.362 136.425 147.067 136.72 146.478 137.309L139.083 144.704C133.061 150.726 124.38 153.254 116.067 151.406C59.4207 138.818 15.1816 94.5792 2.59361 37.9334C0.746164 29.6199 3.27412 20.9388 9.29607 14.9168L16.6909 7.52202Z" stroke="#080808" stroke-width="3"/>
</svg>
