<svg width="14" height="7" viewBox="0 0 14 7" fill="none" xmlns="http://www.w3.org/2000/svg">
<path d="M13.7354 1.62649C14.0904 1.25206 14.0878 0.647682 13.7297 0.276575C13.3715 -0.094531 12.7934 -0.0918346 12.4385 0.282598L10.3113 2.52638C9.44801 3.437 8.85387 4.06166 8.35045 4.48433C7.86143 4.89492 7.54732 5.03577 7.26601 5.07326C7.08937 5.09679 6.91063 5.09679 6.734 5.07326C6.45268 5.03577 6.13857 4.89492 5.64955 4.48434C5.14613 4.06166 4.55199 3.43701 3.6887 2.52638L1.56154 0.282599C1.20657 -0.0918336 0.628464 -0.09453 0.270311 0.276576C-0.0878418 0.647683 -0.090421 1.25206 0.26455 1.62649L2.43003 3.91069C3.24561 4.77102 3.91219 5.47417 4.50612 5.97284C5.12374 6.49138 5.75062 6.86675 6.50311 6.96702C6.83305 7.01099 7.16695 7.01099 7.49689 6.96702C8.24938 6.86675 8.87626 6.49138 9.49388 5.97284C10.0878 5.47417 10.7544 4.77103 11.57 3.9107L13.7354 1.62649Z" fill="#3F3F3F"/>
</svg>
