<svg width="266" height="362" viewBox="0 0 266 362" fill="none" xmlns="http://www.w3.org/2000/svg">
<path d="M349.073 84.1895C350.076 85.9259 351.052 87.6792 352.001 89.4491C350.277 88.321 349.125 86.3914 349.073 84.1895Z" fill="#8FA3EE"/>
<path d="M313.678 39.5608C316.69 42.3876 319.612 45.3096 322.439 48.3219C321.346 50.3421 319.208 51.7143 316.75 51.7143C313.18 51.7143 310.286 48.8201 310.286 45.25C310.286 42.7917 311.658 40.6539 313.678 39.5608Z" fill="#8FA3EE"/>
<path d="M272.551 9.99875C274.321 10.9483 276.074 11.9244 277.811 12.9268C275.609 12.8754 273.679 11.723 272.551 9.99875Z" fill="#8FA3EE"/>
<path d="M84.1895 12.9268C85.9259 11.9244 87.6792 10.9483 89.4491 9.99874C88.321 11.723 86.3914 12.8754 84.1895 12.9268Z" fill="#8FA3EE"/>
<path d="M39.5608 48.3219C42.3876 45.3096 45.3096 42.3876 48.3219 39.5608C50.3421 40.6539 51.7143 42.7917 51.7143 45.25C51.7143 48.8201 48.8201 51.7143 45.25 51.7143C42.7917 51.7143 40.6539 50.3421 39.5608 48.3219Z" fill="#8FA3EE"/>
<path d="M9.99874 89.4491C10.9483 87.6792 11.9244 85.9259 12.9268 84.1895C12.8754 86.3914 11.723 88.321 9.99874 89.4491Z" fill="#8FA3EE"/>
<path d="M352.001 272.551C351.052 274.321 350.076 276.074 349.073 277.811C349.125 275.609 350.277 273.679 352.001 272.551Z" fill="#8FA3EE"/>
<path d="M322.439 313.678C321.346 311.658 319.208 310.286 316.75 310.286C313.18 310.286 310.286 313.18 310.286 316.75C310.286 319.208 311.658 321.346 313.678 322.439C316.69 319.612 319.612 316.69 322.439 313.678Z" fill="#8FA3EE"/>
<path d="M277.811 349.073C275.609 349.125 273.679 350.277 272.551 352.001C274.321 351.052 276.074 350.076 277.811 349.073Z" fill="#8FA3EE"/>
<path d="M89.4491 352.001C88.321 350.277 86.3914 349.125 84.1895 349.073C85.9259 350.076 87.6792 351.052 89.4491 352.001Z" fill="#8FA3EE"/>
<path d="M48.3219 322.439C50.3421 321.346 51.7143 319.208 51.7143 316.75C51.7143 313.18 48.8201 310.286 45.25 310.286C42.7917 310.286 40.6539 311.658 39.5608 313.678C42.3876 316.69 45.3096 319.612 48.3219 322.439Z" fill="#8FA3EE"/>
<path d="M12.9268 277.811C12.8754 275.609 11.723 273.679 9.99875 272.551C10.9483 274.321 11.9244 276.074 12.9268 277.811Z" fill="#8FA3EE"/>
<path d="M129.286 6.46429C129.286 10.0344 126.392 12.9286 122.821 12.9286C119.251 12.9286 116.357 10.0344 116.357 6.46429C116.357 2.89416 119.251 0 122.821 0C126.392 0 129.286 2.89416 129.286 6.46429Z" fill="#8FA3EE"/>
<path d="M168.071 6.46429C168.071 10.0344 165.177 12.9286 161.607 12.9286C158.037 12.9286 155.143 10.0344 155.143 6.46429C155.143 2.89416 158.037 0 161.607 0C165.177 0 168.071 2.89416 168.071 6.46429Z" fill="#8FA3EE"/>
<path d="M206.857 6.46429C206.857 10.0344 203.963 12.9286 200.393 12.9286C196.823 12.9286 193.929 10.0344 193.929 6.46429C193.929 2.89416 196.823 0 200.393 0C203.963 0 206.857 2.89416 206.857 6.46429Z" fill="#8FA3EE"/>
<path d="M245.643 6.46429C245.643 10.0344 242.749 12.9286 239.179 12.9286C235.608 12.9286 232.714 10.0344 232.714 6.46429C232.714 2.89416 235.608 0 239.179 0C242.749 0 245.643 2.89416 245.643 6.46429Z" fill="#8FA3EE"/>
<path d="M90.5 45.25C90.5 48.8201 87.6058 51.7143 84.0357 51.7143C80.4656 51.7143 77.5714 48.8201 77.5714 45.25C77.5714 41.6799 80.4656 38.7857 84.0357 38.7857C87.6058 38.7857 90.5 41.6799 90.5 45.25Z" fill="#8FA3EE"/>
<path d="M129.286 45.25C129.286 48.8201 126.392 51.7143 122.821 51.7143C119.251 51.7143 116.357 48.8201 116.357 45.25C116.357 41.6799 119.251 38.7857 122.821 38.7857C126.392 38.7857 129.286 41.6799 129.286 45.25Z" fill="#8FA3EE"/>
<path d="M168.071 45.25C168.071 48.8201 165.177 51.7143 161.607 51.7143C158.037 51.7143 155.143 48.8201 155.143 45.25C155.143 41.6799 158.037 38.7857 161.607 38.7857C165.177 38.7857 168.071 41.6799 168.071 45.25Z" fill="#8FA3EE"/>
<path d="M206.857 45.25C206.857 48.8201 203.963 51.7143 200.393 51.7143C196.823 51.7143 193.929 48.8201 193.929 45.25C193.929 41.6799 196.823 38.7857 200.393 38.7857C203.963 38.7857 206.857 41.6799 206.857 45.25Z" fill="#8FA3EE"/>
<path d="M245.643 45.25C245.643 48.8201 242.749 51.7143 239.179 51.7143C235.608 51.7143 232.714 48.8201 232.714 45.25C232.714 41.6799 235.608 38.7857 239.179 38.7857C242.749 38.7857 245.643 41.6799 245.643 45.25Z" fill="#8FA3EE"/>
<path d="M284.429 45.25C284.429 48.8201 281.534 51.7143 277.964 51.7143C274.394 51.7143 271.5 48.8201 271.5 45.25C271.5 41.6799 274.394 38.7857 277.964 38.7857C281.534 38.7857 284.429 41.6799 284.429 45.25Z" fill="#8FA3EE"/>
<path d="M51.7143 84.0357C51.7143 87.6058 48.8201 90.5 45.25 90.5C41.6799 90.5 38.7857 87.6058 38.7857 84.0357C38.7857 80.4656 41.6799 77.5714 45.25 77.5714C48.8201 77.5714 51.7143 80.4656 51.7143 84.0357Z" fill="#8FA3EE"/>
<path d="M90.5 84.0357C90.5 87.6058 87.6058 90.5 84.0357 90.5C80.4656 90.5 77.5714 87.6058 77.5714 84.0357C77.5714 80.4656 80.4656 77.5714 84.0357 77.5714C87.6058 77.5714 90.5 80.4656 90.5 84.0357Z" fill="#8FA3EE"/>
<path d="M129.286 84.0357C129.286 87.6058 126.392 90.5 122.821 90.5C119.251 90.5 116.357 87.6058 116.357 84.0357C116.357 80.4656 119.251 77.5714 122.821 77.5714C126.392 77.5714 129.286 80.4656 129.286 84.0357Z" fill="#8FA3EE"/>
<path d="M168.071 84.0357C168.071 87.6058 165.177 90.5 161.607 90.5C158.037 90.5 155.143 87.6058 155.143 84.0357C155.143 80.4656 158.037 77.5714 161.607 77.5714C165.177 77.5714 168.071 80.4656 168.071 84.0357Z" fill="#8FA3EE"/>
<path d="M206.857 84.0357C206.857 87.6058 203.963 90.5 200.393 90.5C196.823 90.5 193.929 87.6058 193.929 84.0357C193.929 80.4656 196.823 77.5714 200.393 77.5714C203.963 77.5714 206.857 80.4656 206.857 84.0357Z" fill="#8FA3EE"/>
<path d="M245.643 84.0357C245.643 87.6058 242.749 90.5 239.179 90.5C235.608 90.5 232.714 87.6058 232.714 84.0357C232.714 80.4656 235.608 77.5714 239.179 77.5714C242.749 77.5714 245.643 80.4656 245.643 84.0357Z" fill="#8FA3EE"/>
<path d="M284.429 84.0357C284.429 87.6058 281.534 90.5 277.964 90.5C274.394 90.5 271.5 87.6058 271.5 84.0357C271.5 80.4656 274.394 77.5714 277.964 77.5714C281.534 77.5714 284.429 80.4656 284.429 84.0357Z" fill="#8FA3EE"/>
<path d="M323.214 84.0357C323.214 87.6058 320.32 90.5 316.75 90.5C313.18 90.5 310.286 87.6058 310.286 84.0357C310.286 80.4656 313.18 77.5714 316.75 77.5714C320.32 77.5714 323.214 80.4656 323.214 84.0357Z" fill="#8FA3EE"/>
<path d="M12.9286 122.821C12.9286 126.392 10.0344 129.286 6.46429 129.286C2.89416 129.286 0 126.392 0 122.821C0 119.251 2.89416 116.357 6.46429 116.357C10.0344 116.357 12.9286 119.251 12.9286 122.821Z" fill="#8FA3EE"/>
<path d="M51.7143 122.821C51.7143 126.392 48.8201 129.286 45.25 129.286C41.6799 129.286 38.7857 126.392 38.7857 122.821C38.7857 119.251 41.6799 116.357 45.25 116.357C48.8201 116.357 51.7143 119.251 51.7143 122.821Z" fill="#8FA3EE"/>
<path d="M90.5 122.821C90.5 126.392 87.6058 129.286 84.0357 129.286C80.4656 129.286 77.5714 126.392 77.5714 122.821C77.5714 119.251 80.4656 116.357 84.0357 116.357C87.6058 116.357 90.5 119.251 90.5 122.821Z" fill="#8FA3EE"/>
<path d="M129.286 122.821C129.286 126.392 126.392 129.286 122.821 129.286C119.251 129.286 116.357 126.392 116.357 122.821C116.357 119.251 119.251 116.357 122.821 116.357C126.392 116.357 129.286 119.251 129.286 122.821Z" fill="#8FA3EE"/>
<path d="M168.071 122.821C168.071 126.392 165.177 129.286 161.607 129.286C158.037 129.286 155.143 126.392 155.143 122.821C155.143 119.251 158.037 116.357 161.607 116.357C165.177 116.357 168.071 119.251 168.071 122.821Z" fill="#8FA3EE"/>
<path d="M206.857 122.821C206.857 126.392 203.963 129.286 200.393 129.286C196.823 129.286 193.929 126.392 193.929 122.821C193.929 119.251 196.823 116.357 200.393 116.357C203.963 116.357 206.857 119.251 206.857 122.821Z" fill="#8FA3EE"/>
<path d="M245.643 122.821C245.643 126.392 242.749 129.286 239.179 129.286C235.608 129.286 232.714 126.392 232.714 122.821C232.714 119.251 235.608 116.357 239.179 116.357C242.749 116.357 245.643 119.251 245.643 122.821Z" fill="#8FA3EE"/>
<path d="M284.429 122.821C284.429 126.392 281.534 129.286 277.964 129.286C274.394 129.286 271.5 126.392 271.5 122.821C271.5 119.251 274.394 116.357 277.964 116.357C281.534 116.357 284.429 119.251 284.429 122.821Z" fill="#8FA3EE"/>
<path d="M323.214 122.821C323.214 126.392 320.32 129.286 316.75 129.286C313.18 129.286 310.286 126.392 310.286 122.821C310.286 119.251 313.18 116.357 316.75 116.357C320.32 116.357 323.214 119.251 323.214 122.821Z" fill="#8FA3EE"/>
<path d="M362 122.821C362 126.392 359.106 129.286 355.536 129.286C351.966 129.286 349.071 126.392 349.071 122.821C349.071 119.251 351.966 116.357 355.536 116.357C359.106 116.357 362 119.251 362 122.821Z" fill="#8FA3EE"/>
<path d="M12.9286 161.607C12.9286 165.177 10.0344 168.071 6.46429 168.071C2.89416 168.071 0 165.177 0 161.607C0 158.037 2.89416 155.143 6.46429 155.143C10.0344 155.143 12.9286 158.037 12.9286 161.607Z" fill="#8FA3EE"/>
<path d="M51.7143 161.607C51.7143 165.177 48.8201 168.071 45.25 168.071C41.6799 168.071 38.7857 165.177 38.7857 161.607C38.7857 158.037 41.6799 155.143 45.25 155.143C48.8201 155.143 51.7143 158.037 51.7143 161.607Z" fill="#8FA3EE"/>
<path d="M90.5 161.607C90.5 165.177 87.6058 168.071 84.0357 168.071C80.4656 168.071 77.5714 165.177 77.5714 161.607C77.5714 158.037 80.4656 155.143 84.0357 155.143C87.6058 155.143 90.5 158.037 90.5 161.607Z" fill="#8FA3EE"/>
<path d="M129.286 161.607C129.286 165.177 126.392 168.071 122.821 168.071C119.251 168.071 116.357 165.177 116.357 161.607C116.357 158.037 119.251 155.143 122.821 155.143C126.392 155.143 129.286 158.037 129.286 161.607Z" fill="#8FA3EE"/>
<path d="M168.071 161.607C168.071 165.177 165.177 168.071 161.607 168.071C158.037 168.071 155.143 165.177 155.143 161.607C155.143 158.037 158.037 155.143 161.607 155.143C165.177 155.143 168.071 158.037 168.071 161.607Z" fill="#8FA3EE"/>
<path d="M206.857 161.607C206.857 165.177 203.963 168.071 200.393 168.071C196.823 168.071 193.929 165.177 193.929 161.607C193.929 158.037 196.823 155.143 200.393 155.143C203.963 155.143 206.857 158.037 206.857 161.607Z" fill="#8FA3EE"/>
<path d="M245.643 161.607C245.643 165.177 242.749 168.071 239.179 168.071C235.608 168.071 232.714 165.177 232.714 161.607C232.714 158.037 235.608 155.143 239.179 155.143C242.749 155.143 245.643 158.037 245.643 161.607Z" fill="#8FA3EE"/>
<path d="M284.429 161.607C284.429 165.177 281.534 168.071 277.964 168.071C274.394 168.071 271.5 165.177 271.5 161.607C271.5 158.037 274.394 155.143 277.964 155.143C281.534 155.143 284.429 158.037 284.429 161.607Z" fill="#8FA3EE"/>
<path d="M323.214 161.607C323.214 165.177 320.32 168.071 316.75 168.071C313.18 168.071 310.286 165.177 310.286 161.607C310.286 158.037 313.18 155.143 316.75 155.143C320.32 155.143 323.214 158.037 323.214 161.607Z" fill="#8FA3EE"/>
<path d="M362 161.607C362 165.177 359.106 168.071 355.536 168.071C351.966 168.071 349.071 165.177 349.071 161.607C349.071 158.037 351.966 155.143 355.536 155.143C359.106 155.143 362 158.037 362 161.607Z" fill="#8FA3EE"/>
<path d="M12.9286 200.393C12.9286 203.963 10.0344 206.857 6.46429 206.857C2.89416 206.857 0 203.963 0 200.393C0 196.823 2.89416 193.929 6.46429 193.929C10.0344 193.929 12.9286 196.823 12.9286 200.393Z" fill="#8FA3EE"/>
<path d="M51.7143 200.393C51.7143 203.963 48.8201 206.857 45.25 206.857C41.6799 206.857 38.7857 203.963 38.7857 200.393C38.7857 196.823 41.6799 193.929 45.25 193.929C48.8201 193.929 51.7143 196.823 51.7143 200.393Z" fill="#8FA3EE"/>
<path d="M90.5 200.393C90.5 203.963 87.6058 206.857 84.0357 206.857C80.4656 206.857 77.5714 203.963 77.5714 200.393C77.5714 196.823 80.4656 193.929 84.0357 193.929C87.6058 193.929 90.5 196.823 90.5 200.393Z" fill="#8FA3EE"/>
<path d="M129.286 200.393C129.286 203.963 126.392 206.857 122.821 206.857C119.251 206.857 116.357 203.963 116.357 200.393C116.357 196.823 119.251 193.929 122.821 193.929C126.392 193.929 129.286 196.823 129.286 200.393Z" fill="#8FA3EE"/>
<path d="M168.071 200.393C168.071 203.963 165.177 206.857 161.607 206.857C158.037 206.857 155.143 203.963 155.143 200.393C155.143 196.823 158.037 193.929 161.607 193.929C165.177 193.929 168.071 196.823 168.071 200.393Z" fill="#8FA3EE"/>
<path d="M206.857 200.393C206.857 203.963 203.963 206.857 200.393 206.857C196.823 206.857 193.929 203.963 193.929 200.393C193.929 196.823 196.823 193.929 200.393 193.929C203.963 193.929 206.857 196.823 206.857 200.393Z" fill="#8FA3EE"/>
<path d="M245.643 200.393C245.643 203.963 242.749 206.857 239.179 206.857C235.608 206.857 232.714 203.963 232.714 200.393C232.714 196.823 235.608 193.929 239.179 193.929C242.749 193.929 245.643 196.823 245.643 200.393Z" fill="#8FA3EE"/>
<path d="M284.429 200.393C284.429 203.963 281.534 206.857 277.964 206.857C274.394 206.857 271.5 203.963 271.5 200.393C271.5 196.823 274.394 193.929 277.964 193.929C281.534 193.929 284.429 196.823 284.429 200.393Z" fill="#8FA3EE"/>
<path d="M323.214 200.393C323.214 203.963 320.32 206.857 316.75 206.857C313.18 206.857 310.286 203.963 310.286 200.393C310.286 196.823 313.18 193.929 316.75 193.929C320.32 193.929 323.214 196.823 323.214 200.393Z" fill="#8FA3EE"/>
<path d="M362 200.393C362 203.963 359.106 206.857 355.536 206.857C351.966 206.857 349.071 203.963 349.071 200.393C349.071 196.823 351.966 193.929 355.536 193.929C359.106 193.929 362 196.823 362 200.393Z" fill="#8FA3EE"/>
<path d="M12.9286 239.179C12.9286 242.749 10.0344 245.643 6.46429 245.643C2.89416 245.643 0 242.749 0 239.179C0 235.608 2.89416 232.714 6.46429 232.714C10.0344 232.714 12.9286 235.608 12.9286 239.179Z" fill="#8FA3EE"/>
<path d="M51.7143 239.179C51.7143 242.749 48.8201 245.643 45.25 245.643C41.6799 245.643 38.7857 242.749 38.7857 239.179C38.7857 235.608 41.6799 232.714 45.25 232.714C48.8201 232.714 51.7143 235.608 51.7143 239.179Z" fill="#8FA3EE"/>
<path d="M90.5 239.179C90.5 242.749 87.6058 245.643 84.0357 245.643C80.4656 245.643 77.5714 242.749 77.5714 239.179C77.5714 235.608 80.4656 232.714 84.0357 232.714C87.6058 232.714 90.5 235.608 90.5 239.179Z" fill="#8FA3EE"/>
<path d="M129.286 239.179C129.286 242.749 126.392 245.643 122.821 245.643C119.251 245.643 116.357 242.749 116.357 239.179C116.357 235.608 119.251 232.714 122.821 232.714C126.392 232.714 129.286 235.608 129.286 239.179Z" fill="#8FA3EE"/>
<path d="M168.071 239.179C168.071 242.749 165.177 245.643 161.607 245.643C158.037 245.643 155.143 242.749 155.143 239.179C155.143 235.608 158.037 232.714 161.607 232.714C165.177 232.714 168.071 235.608 168.071 239.179Z" fill="#8FA3EE"/>
<path d="M206.857 239.179C206.857 242.749 203.963 245.643 200.393 245.643C196.823 245.643 193.929 242.749 193.929 239.179C193.929 235.608 196.823 232.714 200.393 232.714C203.963 232.714 206.857 235.608 206.857 239.179Z" fill="#8FA3EE"/>
<path d="M245.643 239.179C245.643 242.749 242.749 245.643 239.179 245.643C235.608 245.643 232.714 242.749 232.714 239.179C232.714 235.608 235.608 232.714 239.179 232.714C242.749 232.714 245.643 235.608 245.643 239.179Z" fill="#8FA3EE"/>
<path d="M284.429 239.179C284.429 242.749 281.534 245.643 277.964 245.643C274.394 245.643 271.5 242.749 271.5 239.179C271.5 235.608 274.394 232.714 277.964 232.714C281.534 232.714 284.429 235.608 284.429 239.179Z" fill="#8FA3EE"/>
<path d="M323.214 239.179C323.214 242.749 320.32 245.643 316.75 245.643C313.18 245.643 310.286 242.749 310.286 239.179C310.286 235.608 313.18 232.714 316.75 232.714C320.32 232.714 323.214 235.608 323.214 239.179Z" fill="#8FA3EE"/>
<path d="M362 239.179C362 242.749 359.106 245.643 355.536 245.643C351.966 245.643 349.071 242.749 349.071 239.179C349.071 235.608 351.966 232.714 355.536 232.714C359.106 232.714 362 235.608 362 239.179Z" fill="#8FA3EE"/>
<path d="M51.7143 277.964C51.7143 281.534 48.8201 284.429 45.25 284.429C41.6799 284.429 38.7857 281.534 38.7857 277.964C38.7857 274.394 41.6799 271.5 45.25 271.5C48.8201 271.5 51.7143 274.394 51.7143 277.964Z" fill="#8FA3EE"/>
<path d="M90.5 277.964C90.5 281.534 87.6058 284.429 84.0357 284.429C80.4656 284.429 77.5714 281.534 77.5714 277.964C77.5714 274.394 80.4656 271.5 84.0357 271.5C87.6058 271.5 90.5 274.394 90.5 277.964Z" fill="#8FA3EE"/>
<path d="M129.286 277.964C129.286 281.534 126.392 284.429 122.821 284.429C119.251 284.429 116.357 281.534 116.357 277.964C116.357 274.394 119.251 271.5 122.821 271.5C126.392 271.5 129.286 274.394 129.286 277.964Z" fill="#8FA3EE"/>
<path d="M168.071 277.964C168.071 281.534 165.177 284.429 161.607 284.429C158.037 284.429 155.143 281.534 155.143 277.964C155.143 274.394 158.037 271.5 161.607 271.5C165.177 271.5 168.071 274.394 168.071 277.964Z" fill="#8FA3EE"/>
<path d="M206.857 277.964C206.857 281.534 203.963 284.429 200.393 284.429C196.823 284.429 193.929 281.534 193.929 277.964C193.929 274.394 196.823 271.5 200.393 271.5C203.963 271.5 206.857 274.394 206.857 277.964Z" fill="#8FA3EE"/>
<path d="M245.643 277.964C245.643 281.534 242.749 284.429 239.179 284.429C235.608 284.429 232.714 281.534 232.714 277.964C232.714 274.394 235.608 271.5 239.179 271.5C242.749 271.5 245.643 274.394 245.643 277.964Z" fill="#8FA3EE"/>
<path d="M284.429 277.964C284.429 281.534 281.534 284.429 277.964 284.429C274.394 284.429 271.5 281.534 271.5 277.964C271.5 274.394 274.394 271.5 277.964 271.5C281.534 271.5 284.429 274.394 284.429 277.964Z" fill="#8FA3EE"/>
<path d="M323.214 277.964C323.214 281.534 320.32 284.429 316.75 284.429C313.18 284.429 310.286 281.534 310.286 277.964C310.286 274.394 313.18 271.5 316.75 271.5C320.32 271.5 323.214 274.394 323.214 277.964Z" fill="#8FA3EE"/>
<path d="M90.5 316.75C90.5 320.32 87.6058 323.214 84.0357 323.214C80.4656 323.214 77.5714 320.32 77.5714 316.75C77.5714 313.18 80.4656 310.286 84.0357 310.286C87.6058 310.286 90.5 313.18 90.5 316.75Z" fill="#8FA3EE"/>
<path d="M129.286 316.75C129.286 320.32 126.392 323.214 122.821 323.214C119.251 323.214 116.357 320.32 116.357 316.75C116.357 313.18 119.251 310.286 122.821 310.286C126.392 310.286 129.286 313.18 129.286 316.75Z" fill="#8FA3EE"/>
<path d="M168.071 316.75C168.071 320.32 165.177 323.214 161.607 323.214C158.037 323.214 155.143 320.32 155.143 316.75C155.143 313.18 158.037 310.286 161.607 310.286C165.177 310.286 168.071 313.18 168.071 316.75Z" fill="#8FA3EE"/>
<path d="M206.857 316.75C206.857 320.32 203.963 323.214 200.393 323.214C196.823 323.214 193.929 320.32 193.929 316.75C193.929 313.18 196.823 310.286 200.393 310.286C203.963 310.286 206.857 313.18 206.857 316.75Z" fill="#8FA3EE"/>
<path d="M245.643 316.75C245.643 320.32 242.749 323.214 239.179 323.214C235.608 323.214 232.714 320.32 232.714 316.75C232.714 313.18 235.608 310.286 239.179 310.286C242.749 310.286 245.643 313.18 245.643 316.75Z" fill="#8FA3EE"/>
<path d="M284.429 316.75C284.429 320.32 281.534 323.214 277.964 323.214C274.394 323.214 271.5 320.32 271.5 316.75C271.5 313.18 274.394 310.286 277.964 310.286C281.534 310.286 284.429 313.18 284.429 316.75Z" fill="#8FA3EE"/>
<path d="M129.286 355.536C129.286 359.106 126.392 362 122.821 362C119.251 362 116.357 359.106 116.357 355.536C116.357 351.966 119.251 349.071 122.821 349.071C126.392 349.071 129.286 351.966 129.286 355.536Z" fill="#8FA3EE"/>
<path d="M168.071 355.536C168.071 359.106 165.177 362 161.607 362C158.037 362 155.143 359.106 155.143 355.536C155.143 351.966 158.037 349.071 161.607 349.071C165.177 349.071 168.071 351.966 168.071 355.536Z" fill="#8FA3EE"/>
<path d="M206.857 355.536C206.857 359.106 203.963 362 200.393 362C196.823 362 193.929 359.106 193.929 355.536C193.929 351.966 196.823 349.071 200.393 349.071C203.963 349.071 206.857 351.966 206.857 355.536Z" fill="#8FA3EE"/>
<path d="M245.643 355.536C245.643 359.106 242.749 362 239.179 362C235.608 362 232.714 359.106 232.714 355.536C232.714 351.966 235.608 349.071 239.179 349.071C242.749 349.071 245.643 351.966 245.643 355.536Z" fill="#8FA3EE"/>
</svg>
