<svg width="27" height="27" viewBox="0 0 27 27" fill="none" xmlns="http://www.w3.org/2000/svg">
<path d="M13.5657 6.93145C17.1094 6.93145 20.0344 9.85645 20.0344 13.4002C20.0344 17.0002 17.1094 19.8689 13.5657 19.8689C9.96566 19.8689 7.09691 17.0002 7.09691 13.4002C7.09691 9.85645 9.96566 6.93145 13.5657 6.93145ZM13.5657 17.6189C15.8719 17.6189 17.7282 15.7627 17.7282 13.4002C17.7282 11.0939 15.8719 9.2377 13.5657 9.2377C11.2032 9.2377 9.34691 11.0939 9.34691 13.4002C9.34691 15.7627 11.2594 17.6189 13.5657 17.6189ZM21.7782 6.70645C21.7782 7.5502 21.1032 8.2252 20.2594 8.2252C19.4157 8.2252 18.7407 7.5502 18.7407 6.70645C18.7407 5.8627 19.4157 5.1877 20.2594 5.1877C21.1032 5.1877 21.7782 5.8627 21.7782 6.70645ZM26.0532 8.2252C26.1657 10.3064 26.1657 16.5502 26.0532 18.6314C25.9407 20.6564 25.4907 22.4002 24.0282 23.9189C22.5657 25.3814 20.7657 25.8314 18.7407 25.9439C16.6594 26.0564 10.4157 26.0564 8.33441 25.9439C6.30941 25.8314 4.56566 25.3814 3.04691 23.9189C1.58441 22.4002 1.13441 20.6564 1.02191 18.6314C0.909415 16.5502 0.909415 10.3064 1.02191 8.2252C1.13441 6.2002 1.58441 4.4002 3.04691 2.9377C4.56566 1.4752 6.30941 1.0252 8.33441 0.912696C10.4157 0.800196 16.6594 0.800196 18.7407 0.912696C20.7657 1.0252 22.5657 1.4752 24.0282 2.9377C25.4907 4.4002 25.9407 6.2002 26.0532 8.2252ZM23.3532 20.8252C24.0282 19.1939 23.8594 15.2564 23.8594 13.4002C23.8594 11.6002 24.0282 7.6627 23.3532 5.9752C22.9032 4.90645 22.0594 4.00645 20.9907 3.6127C19.3032 2.9377 15.3657 3.10645 13.5657 3.10645C11.7094 3.10645 7.77191 2.9377 6.14066 3.6127C5.01566 4.0627 4.17191 4.90645 3.72191 5.9752C3.04691 7.6627 3.21566 11.6002 3.21566 13.4002C3.21566 15.2564 3.04691 19.1939 3.72191 20.8252C4.17191 21.9502 5.01566 22.7939 6.14066 23.2439C7.77191 23.9189 11.7094 23.7502 13.5657 23.7502C15.3657 23.7502 19.3032 23.9189 20.9907 23.2439C22.0594 22.7939 22.9594 21.9502 23.3532 20.8252Z" fill="black"/>
<a href="https://www.figma.com/design/UlrEWNwWPaaHGVbKAp6ua9/Sidhalay?node-id=123-4">
<rect fill="black" fill-opacity="0" x="0.175626" y="12.24" width="25.2" height="33.12"/>
</a>
</svg>
