<svg width="138" height="138" viewBox="0 0 138 138" fill="none" xmlns="http://www.w3.org/2000/svg">
<path d="M14.9963 32.4774C11.5 39.8807 11.5 50.4508 11.5 69C11.5 90.561 11.5 101.341 16.9908 108.899C18.7641 111.34 20.9105 113.486 23.3512 115.259C30.9086 120.75 41.689 120.75 63.25 120.75H74.75C96.311 120.75 107.091 120.75 114.649 115.259C117.09 113.486 119.236 111.34 121.009 108.899C126.5 101.341 126.5 90.561 126.5 69C126.5 50.3197 126.5 39.7316 122.929 32.3209M14.9963 32.4774C15.5639 31.2754 16.2238 30.1568 16.9908 29.1012C18.7641 26.6605 20.9105 24.514 23.3512 22.7408C30.9086 17.25 41.689 17.25 63.25 17.25H74.75C96.311 17.25 107.091 17.25 114.649 22.7408C117.09 24.514 119.236 26.6605 121.009 29.1012C121.743 30.1109 122.378 31.1781 122.929 32.3209M14.9963 32.4774L17.25 34.5L28.3414 45.5914C47.508 64.758 57.0914 74.3414 69 74.3414C80.9087 74.3414 90.492 64.758 109.659 45.5914L120.75 34.5L122.929 32.3209" stroke="black" stroke-width="3"/>
</svg>
