<svg width="214" height="214" viewBox="0 0 214 214" fill="none" xmlns="http://www.w3.org/2000/svg">
<path d="M129.292 187.25V136.75C129.292 135.093 127.949 133.75 126.292 133.75H87.7085C86.0516 133.75 84.7085 135.093 84.7085 136.75V187.25" stroke="#0A0A0A" stroke-width="2" stroke-linecap="round" stroke-linejoin="round"/>
<path d="M44.5835 98.0835V175.25C44.5835 180.907 44.5835 183.735 46.3409 185.493C48.0982 187.25 50.9266 187.25 56.5835 187.25H157.417C163.074 187.25 165.902 187.25 167.659 185.493C169.417 183.735 169.417 180.907 169.417 175.25V98.0835" stroke="#0A0A0A" stroke-width="2"/>
<path d="M43.4471 31.2948C43.9928 29.1121 44.2656 28.0208 45.0794 27.3854C45.8932 26.75 47.0181 26.75 49.268 26.75H164.732C166.982 26.75 168.107 26.75 168.921 27.3854C169.734 28.0208 170.007 29.1121 170.553 31.2948L185.386 90.6281C186.244 94.0599 186.673 95.7758 185.772 96.9296C184.871 98.0833 183.103 98.0833 179.565 98.0833H154.938C154.17 98.0833 153.786 98.0833 153.455 98.0077C152.506 97.7903 151.721 97.1254 151.35 96.2245C151.221 95.9109 151.158 95.5319 151.032 94.7738V94.7738C150.325 90.5319 149.971 88.411 149.575 87.8501C148.379 86.1588 145.87 86.1588 144.675 87.8501C144.279 88.411 143.925 90.5319 143.218 94.7738V94.7738C143.092 95.5319 143.029 95.9109 142.9 96.2245C142.529 97.1254 141.744 97.7903 140.795 98.0077C140.464 98.0833 140.08 98.0833 139.312 98.0833H114.813C114.045 98.0833 113.661 98.0833 113.33 98.0077C112.381 97.7903 111.596 97.1254 111.225 96.2245C111.096 95.9109 111.033 95.5319 110.907 94.7738V94.7738C110.2 90.5319 109.846 88.411 109.45 87.8501C108.254 86.1588 105.745 86.1588 104.55 87.8501C104.154 88.411 103.8 90.5319 103.093 94.7738V94.7738C102.967 95.5319 102.904 95.9109 102.775 96.2245C102.404 97.1254 101.619 97.7903 100.67 98.0077C100.339 98.0833 99.955 98.0833 99.1865 98.0833H74.6885C73.92 98.0833 73.5357 98.0833 73.2052 98.0077C72.2557 97.7903 71.4708 97.1254 71.1002 96.2245C70.9713 95.9109 70.9081 95.5319 70.7817 94.7738V94.7738C70.0748 90.5319 69.7213 88.411 69.3249 87.8501C68.1295 86.1588 65.6205 86.1588 64.4251 87.8501C64.0287 88.411 63.6752 90.5319 62.9683 94.7738V94.7738C62.8419 95.5319 62.7787 95.9109 62.6498 96.2245C62.2792 97.1254 61.4943 97.7903 60.5448 98.0077C60.2143 98.0833 59.83 98.0833 59.0615 98.0833H34.4347C30.8972 98.0833 29.1285 98.0833 28.2277 96.9296C27.3269 95.7758 27.7559 94.0599 28.6138 90.6281L43.4471 31.2948Z" stroke="#0A0A0A" stroke-width="2"/>
</svg>
