<svg width="31" height="23" viewBox="0 0 31 23" fill="none" xmlns="http://www.w3.org/2000/svg">
<path d="M30.2641 4.03145C30.9391 6.39395 30.9391 11.4564 30.9391 11.4564C30.9391 11.4564 30.9391 16.4627 30.2641 18.8814C29.9266 20.2314 28.8578 21.2439 27.5641 21.5814C25.1453 22.2002 15.5828 22.2002 15.5828 22.2002C15.5828 22.2002 5.96409 22.2002 3.54534 21.5814C2.25159 21.2439 1.18284 20.2314 0.845345 18.8814C0.170345 16.4627 0.170345 11.4564 0.170345 11.4564C0.170345 11.4564 0.170345 6.39395 0.845345 4.03145C1.18284 2.68145 2.25159 1.6127 3.54534 1.2752C5.96409 0.600196 15.5828 0.600196 15.5828 0.600196C15.5828 0.600196 25.1453 0.600196 27.5641 1.2752C28.8578 1.6127 29.9266 2.68145 30.2641 4.03145ZM12.4328 16.0127L20.4203 11.4564L12.4328 6.9002V16.0127Z" fill="black"/>
<a href="https://www.figma.com/design/UlrEWNwWPaaHGVbKAp6ua9/Sidhalay?node-id=123-4">
<rect fill="black" fill-opacity="0" x="0.203157" y="12.24" width="32.4" height="33.12"/>
</a>
</svg>
